Simulation
nRows=16
nColumns=15
endheader
time  TH_x TH_y TH_z SC_y  SC_z  SC_x  AC_y  AC_z  AC_x  GH_y  GH_z  GH_yy  EL_x  PS_y
0.0  0.000000  0.000000  0.000000  -40.97484877243665  6.293857566463187  5.290427962726946  38.6841865455655  -1.198208661165512  -7.5970029545645  109.7374912229217  7.409068724603538  -78.53431421154708  22.451640952007047  120.000000
0.05745  0.000000  0.000000  0.000000  -38.816770967422066  4.764008243517158  3.953629137485892  40.3761658071548  -2.042998046250188  -5.86373701784128  55.28218627523068  6.170159235591138  -28.12360234378364  21.905917124763782  120.000000
0.1149  0.000000  0.000000  0.000000  -36.793260955049995  3.096847548613751  2.4577517847510784  42.18410960371598  -3.0038746047290816  -4.0196176838315765  16.420759735541843  9.760226177726887  6.794634630391089  21.523645961918575  120.000000
0.17235  0.000000  0.000000  0.000000  -35.09347058436826  1.2489683559352849  0.8763594726960969  44.10465837589667  -4.178650508609985  -1.9915738095505475  -0.05753363091025721  15.186370542517826  19.519393462784453  21.39189037062037  120.000000
0.2298  0.000000  0.000000  0.000000  -33.819858331716894  -0.8070604800121972  -0.7038628279411588  46.16856013313357  -5.654300226028097  0.23893925647189368  -8.89675008933452  21.346957633163665  24.890380721156664  21.528345064501718  120.000000
0.28725  0.000000  0.000000  0.000000  -32.98241228105956  -3.0392200705887937  -2.215609288233667  48.309398893334894  -7.424605486447751  2.62901402378319  -14.723168657662407  27.959742634203508  27.55204271632321  21.868850908120283  120.000000
0.3447  0.000000  0.000000  0.000000  -32.52408873335084  -5.29850024540512  -3.5685857816146864  50.3595987757101  -9.395173831099866  5.079163335405843  -18.946052754313218  34.74064698457955  28.873068209790286  22.30460772225032  120.000000
0.40215  0.000000  0.000000  0.000000  -32.32769100017282  -7.352061753977903  -4.710119815962662  52.148413604801334  -11.336216677685158  7.464991933405597  -21.986841972138752  41.314861546640174  29.233357867397743  22.716600167100882  120.000000
0.4596  0.000000  0.000000  0.000000  -32.30442137006106  -8.92691717921418  -5.667317056383081  53.5913856720244  -12.91831645638256  9.658986645376634  -23.938774694970913  47.33225488776162  28.70341477234899  23.023382193178357  120.000000
0.51705  0.000000  0.000000  0.000000  -32.39165767153148  -9.839070098916725  -6.484927776009644  54.70911094326018  -13.833282288691658  11.526962673074932  -24.8907324990582  52.5973559269467  27.338326879467214  23.17077899404128  120.000000
0.5745  0.000000  0.000000  0.000000  -32.5606971794529  -10.041668770147536  -7.205453693018373  55.608148829501616  -13.901364023646652  13.030452733461658  -25.080125396837374  57.09504655296519  25.3124349246403  23.12838406171515  120.000000
0.63195  0.000000  0.000000  0.000000  -32.84215637952769  -9.591969566465103  -7.889839954899319  56.449348458987025  -13.0719846140912  14.285353705223736  -24.91651255896895  60.9267170032084  22.99470251552462  22.90800849389416  120.000000
0.6894  0.000000  0.000000  0.000000  -33.32256301555449  -8.601275919845188  -8.594066297027053  57.398303211106914  -11.364740032665878  15.481397485576975  -24.807507292683027  64.1847076147581  20.79532993046384  22.54525849646204  120.000000
0.74685  0.000000  0.000000  0.000000  -34.11553943901077  -7.185042064417771  -9.350513937996299  58.54978039443573  -8.823556334424595  16.756054817597757  -24.94642946442821  66.86769334730648  18.95324299795621  22.088207272547546  120.000000
0.8043  0.000000  0.000000  0.000000  -35.28164203122286  -5.4536629665038845  -10.153170896268884  59.87568140059156  -5.506965394147064  18.12347547155211  -25.26923544116701  68.88038689111151  17.455215324500305  21.58679756458472  120.000000
0.86175  0.000000  0.000000  0.000000  -36.76113887700379  -3.510873236799917  -10.952811378253896  61.225388882244154  -1.5289547097308824  19.490201161480133  -25.533819847644505  70.09896833146774  16.04488140356157  21.073006428194134  120.000000
